<svg width="80" height="80" viewBox="0 0 80 80" fill="none" xmlns="http://www.w3.org/2000/svg">
<g clip-path="url(#clip0_625_390)">
<path d="M33.65 0H47.15L47.25 0.45L47.4 0.55L49.15 0.8L50.05 1L50.55 1.25L50.9 1.4L52.45 1.8L53 2.05L53.35 2.2L54.6 2.5L55.1 2.65L55.45 2.9L56.1 3.1L56.8 3.2L57.45 3.45L57.8 3.7L58.8 4.15L59.1 4.35L59.55 4.75L59.95 5.05L60.45 5.35L61.55 5.9L62.05 6.2L62.85 6.6L63.35 7L63.85 7.45L64.2 7.75V7.85L64.4 7.95L65.25 8.8L65.9 9.3L66.95 9.85L67.45 10.3L67.85 10.65L69.65 12.45L70.15 13.1L70.4 13.55L70.55 14L71 14.5L71.35 14.9L71.9 15.45V15.55H72L72.35 15.95L72.7 16.3L73.4 17.25L73.85 18.05L74.35 18.7L74.85 19.45L75.45 20.55L75.9 21.35L76.4 22.4L76.8 23.2L77.35 24.45L77.65 25.55L77.85 26.2L78.1 26.6L78.35 27.55L78.55 28.55L78.8 28.75L79 29.1L79.25 30.5L79.35 31.5L79.45 31.8L79.85 32L80 32.05V47.8L79.45 48.1L79.35 48.45L79.2 49.7L79 50.9L78.6 51.45L78.45 52.05L78.2 53.2L77.8 54L77.4 55.5L77 56.3L76.55 57.35L76.2 57.95L75.85 58.75L75.25 59.85L74.9 60.55L74.2 61.45L74.05 61.65H73.95V61.75H73.85L73.7 62.25L73.4 62.85L72.8 63.55L72.35 64.05L71.65 64.8L71.25 65.15L70.9 65.55L70.75 65.7H70.65L70.3 66.75L69.65 67.5L69.3 67.85L68.95 68.25H68.85L68.75 68.45L68.35 68.85L67.95 69.2L67.75 69.45H67.65V69.55L67.1 70L66.75 70.3L66.65 70.35H66.2L65.9 70.55L65.35 71.1L64.95 71.45L64.35 72.05L63.95 72.4L63.45 72.85L62.8 73.35L62.3 73.55L61.55 74L61.15 74.25L60.35 74.65L59.9 74.95L59.05 75.55L58.55 75.8L57.95 76.05L57.45 76.35L56.4 76.7L55.65 76.9L55.15 77.2L53.95 77.55L53.2 77.75L52.6 78.05L50.7 78.6L50.05 78.85L48.75 79.15L47.3 79.4L47.05 80H33.55V79.7L33.35 79.4L33.15 79.3L32.65 79.2L32.3 79.15L32.2 79.2L31.35 79.15L30.6 79.05L29.9 79L29.35 78.65L29.15 78.55L28 78.3L27.5 78.2L26.9 77.8L25.65 77.5L25.3 77.45L24.3 76.9L23.5 76.6L22.6 76.05L22.1 75.9L20.9 75.2L20.5 75.05L19.95 74.7L19.4 74.2L18.85 73.75L18.05 73.45L17.35 72.95L16.7 72.35L16.45 72.15L15.8 71.95L15.4 71.65L14.85 71.2L9.2 65.55L8.85 65.15L8.3 64.5L7.85 63.7L7.45 63.15L6.75 62.2L6.35 61.5L6 60.95L5.2 59.9L4.75 59.1L3.9 57.45L3.35 56.2L3.1 55.45L2.85 54.6L2.45 53.55L2.1 52.35L1.7 51.3L1.35 50L1 49.05L0.8 48.1L0.65 46.5L0.6 46L0.45 45.7L0.2 45.5L0 45.4V34.45L0.3 34.3L0.5 34.1L0.65 33.3L0.95 31.15L1.15 30.4L1.4 29.7L1.75 28.55L2.2 27.4L2.5 26.25L2.95 25.1L3.3 23.85L3.7 23L3.95 22.5L4.25 21.8L4.55 21.35L5 20.35L5.55 19.65L5.9 19.1L6.25 18.65L6.65 17.85L7.15 17.25L7.55 16.65L7.85 16.3L8.1 15.6L8.7 14.95L9.15 14.4L10.6 12.95L10.75 12.75H10.85L10.9 12.6L11.25 12.3L11.6 11.9L12.05 11.5L12.35 11.15H12.45L12.5 11L12.9 10.65L14.6 8.95L15.3 8.4L15.65 8.1L16.35 7.75L17.15 7.15L17.85 6.65L18.35 6.35L18.9 6.05L19.55 5.55L20.35 5L21.5 4.4L22.05 4.1L22.85 3.7L23.7 3.25L24.5 2.9L25.15 2.5L26 2.3L26.55 2.25L26.95 2.05L27.45 1.7L27.55 1.65L28.35 1.55L29.2 1.4L29.6 1.1L29.85 0.9L30.75 0.8L33.05 0.7L33.45 0.55L33.6 0.05L33.65 0Z" fill="#FD8202"/>
<path d="M40.0499 7.05005L40.4999 7.20005L41.4999 7.70005L42.0499 8.05005L42.5999 8.50005L43.1499 9.05005L43.5999 9.90005V10.3L43.4999 10.8L43.1499 11.55L42.9999 12.2V12.5L43.2499 12.6L44.4499 12.75L44.9999 12.9L45.1499 13.1L45.2999 14.25L47.1499 14.3L48.3999 14.55L49.6499 14.9L51.2499 15.45L52.5999 16.05L53.7999 16.7L54.7999 17.35L55.4999 17.85L56.3499 18.55L57.0499 19.2L57.3999 19.6L57.8499 20.2L58.1499 20.85L58.1999 21.3L57.9999 22.25L57.4999 23.95L56.8499 25.8L56.1499 27.8L55.3499 30.05L54.8499 31.45L54.2499 33.25L53.1999 36.25L52.2499 39L51.7499 40.4L50.8499 43L49.9999 45.4L49.4999 46.9L48.7999 48.85L47.8999 51.45L47.2999 53.2L46.7999 54.6L45.9499 57.1L45.0999 59.55L44.4499 61.45L43.6999 63.55L42.4999 67.1L42.0499 68.3L41.4499 70.1L40.6999 72.3L40.4499 72.7L40.2499 72.75L40.1499 72.6L40.0499 71.6L39.9499 69.75L39.8999 67.95V62.55L39.9499 15.5L39.8999 9.65005V8.05005L39.9999 7.15005L40.0499 7.05005Z" fill="#FDFCFC"/>
<path d="M39.75 6.84998L39.95 6.89998L40.05 6.94998L39.95 8.04998V9.64998L40 15.5L39.95 62.55V67.95L40 69.75L40.1 71.6L40.2 72.7L39.9 72.45L39.45 71.6L39.05 70.8L38.7 69.95L38.5 69.45L37.95 67.95L37.55 66.75L37 65.25L36.5 63.9L35.9 62.1L35.3 60.35L34.85 59.05L34.15 57L33.4 54.8L33.05 53.8L32.4 51.9L32.2 51.35L31.7 49.95L31.2 48.5L30.8 47.3L30.15 45.45L29.8 44.45L29.1 42.5L28.55 40.85L27.9 38.95L27.55 37.9L27.1 36.6L26.65 35.35L25.75 32.7L25.1 30.95L24.55 29.3L23.55 26.5L22.85 24.45L22.2 22.35L22 21.55L22.05 20.9L22.45 20.15L22.85 19.6L23.45 18.95L24.25 18.2L25.05 17.6L25.8 17.05L26.9 16.4L28.05 15.8L28.65 15.5L29.85 15.05L31.4 14.6L32.45 14.4L33.25 14.3L33.75 14.2L34.75 14.15L35 13.9L35.2 13.5L35.35 13.1L35.6 12.85L36.3 12.65L36.7 12.35L36.85 12L36.75 11.35L36.6 10.5L36.55 10.2L36.85 9.19998L37.2 8.64998L37.6 8.24998L38.3 7.69998L38.9 7.24998L39.7 6.89998L39.75 6.84998Z" fill="#023F6A"/>
<path d="M33.75 14.2H34.6L34.55 14.35L34 14.55L33.2 14.7L32.75 14.75L32.15 14.85L31.8 14.9L31.55 14.95L31.05 15.1L30.5 15.3L30 15.4V15.5L29.1 15.8H28.9L28.85 15.95L28.55 16V16.1L27.75 16.5L27.5 16.6H27.35L27.3 16.75L26.75 17.1L26.35 17.25L26.1 17.35L25.85 17.4L25.75 17.55H25.6V17.65L25.2 17.9L24.95 17.95L24.85 18.2L24.6 18.45L24.25 18.5L24.05 18.6L23.95 18.8L23.75 19.05L23.65 19.35L23.55 19.55H23.45L23.4 19.8L23.35 19.95L23.2 20.1L23.1 20.35L22.9 20.65H22.8L22.7 20.95L22.55 21V21.45L22.75 22.35L22.85 22.9L22.9 23.2L23 23.75L23.4 24.75L23.6 25.15L23.7 25.65L23.85 26.2L24.15 26.95L24.35 27.5L24.45 28L24.6 28.4L24.75 28.75L24.9 29.15L25.15 29.75V30.1L25.35 30.75L25.45 31.05L25.55 31.4L25.7 31.55L25.85 31.9L25.95 32.15L25.9 32.4L25.75 32.45L25.65 32.15H25.55L25.1 30.95L24.55 29.3L23.55 26.5L22.85 24.45L22.2 22.35L22 21.55L22.05 20.9L22.45 20.15L22.85 19.6L23.45 18.95L24.25 18.2L25.05 17.6L25.8 17.05L26.9 16.4L28.05 15.8L28.65 15.5L29.85 15.05L31.4 14.6L32.45 14.4L33.25 14.3L33.75 14.2Z" fill="#023F6A"/>
<path d="M32.2998 51.25L32.6498 51.55L32.7498 52.05L33.0498 52.6L33.1498 52.75L33.2498 53.4L33.3498 53.75L33.4998 53.95V54.3L33.6998 54.7L33.8498 54.95L33.9498 55.45L34.1498 55.9L34.3498 56.2L34.4498 56.7L34.6998 57.15L34.8498 57.65L34.9498 58.35L35.0998 58.65L35.1998 59.1L35.3498 59.35L35.5498 59.8L35.7498 60.5L36.0498 61.05L36.1998 61.55L36.3498 62L36.4498 62.55L36.5498 62.8L36.6498 63.1L36.9498 64.15L37.0998 64.4L37.1498 64.8L37.2998 65.15L37.3498 65.35L37.8498 66.6V67.05L37.8998 67.2L37.7498 67.15V67.05H37.6498L36.5498 64L35.1498 59.9L34.6998 58.65L34.0998 56.85L33.3998 54.8L33.0498 53.8L32.4498 52.05L32.2998 51.4V51.25Z" fill="#023F6A"/>
<path d="M39.7498 6.84998L39.9498 6.89998L39.9998 7.04998L39.8498 7.89998L39.6998 8.04998L39.3498 7.99998L39.1498 7.94998V8.04998H38.9998V8.14998L38.5498 8.19998V8.29998L38.1998 8.44998L37.8498 8.84998L37.5998 9.34998L37.4498 9.79998L37.3498 10.45V10.6L37.0998 10.75L37.0498 10.6H36.8998V10.9H36.7998V11L37.0498 11.1L37.0998 11.35L36.9498 11.8L36.8998 11.6H36.7998L36.6498 10.65L36.5498 10.4L36.5998 9.99998L36.8998 9.09998L37.2498 8.59998L37.5998 8.24998L38.2998 7.69998L38.8998 7.24998L39.6998 6.89998L39.7498 6.84998Z" fill="#023F6A"/>
<path d="M37.7998 67.25H37.9998V67.35H38.0998L38.1998 67.55L38.3498 67.65L38.4998 68.3L38.5498 68.45L38.7498 68.55L38.8998 68.75V68.9L38.9998 68.95L39.1498 69.4L39.1998 69.9L39.4498 70.1L39.7998 70.4H39.8998L39.9498 71.95H39.8498L39.7998 72.05L39.9498 72.1L39.8998 72.25H39.7998L39.3998 71.55L38.9498 70.55L38.5498 69.55L38.1998 68.65L37.7998 67.45V67.25Z" fill="#023F6A"/>
<path d="M25.8498 32.45L26.0498 32.55L26.2998 33.1L26.5498 33.7L26.6498 33.8L26.8498 34.7L26.9998 35.15L27.1998 35.6L27.2498 35.9L27.4998 36.5V36.8L27.4498 37L27.2998 36.95L27.2498 36.75H27.1498L26.6498 35.35L26.0998 33.75L25.9998 33.2L25.8998 32.95L25.8498 32.75L25.7998 32.5L25.8498 32.45Z" fill="#023F6A"/>
<path d="M27.4502 37.05L27.6002 37.1L28.1002 38.3L28.3002 38.7L28.4502 38.95L28.4002 39.35L28.5002 39.4V39.8L28.6502 40.15L28.8002 40.7L29.0002 41.15L29.1002 41.4L29.0002 41.75L28.8502 41.7L28.2002 39.85L27.8502 38.75L27.7002 38.15L27.4502 37.35V37.05Z" fill="#023F6A"/>
<path d="M30.7002 46.55H30.8502V46.85H30.9502V46.95H31.0502L31.2502 47.5L31.6502 48.25V48.6L31.9502 49.95L32.0502 50L32.1502 50.35L32.2502 50.5L32.2002 50.85H32.1002V50.75H32.0002L31.5502 49.5L30.8502 47.45L30.7002 46.8V46.55Z" fill="#023F6A"/>
<path d="M29.0998 42L29.2998 42.25L29.6998 43.05L29.9498 43.8L29.8998 44.05L29.9498 44.3L29.8498 44.25V44.15H29.7498V44H29.6498L29.2498 42.9L29.1998 42.45L29.0498 42.05L29.0998 42Z" fill="#023F6A"/>
<path d="M30 44.7L30.2 44.8L30.45 45.45L30.55 45.75L30.65 45.9L30.6 46.35L30.45 46.3L30.1 45.35L30 44.7Z" fill="#023F6A"/>
<path d="M36.6 12.45L36.7 12.5L36.5 12.75L36 12.9L35.8 13.15L35.6 13.2L35.55 13.35L35.35 13.55H35.25L35.3 13.2L35.6 12.85L36.3 12.65L36.6 12.45Z" fill="#023F6A"/>
<path d="M36.7002 10.7L36.8002 10.85L36.7502 11L36.9502 11.05L37.1002 11.2L37.0502 11.55L36.9502 11.8L36.9002 11.6H36.8002L36.7002 11.1V10.7Z" fill="#023F6A"/>
<path d="M26.2998 34.15L26.3998 34.25L26.5498 34.8H26.6498L26.7498 35.3L26.8998 35.75L26.8498 35.9L26.2998 34.3V34.15Z" fill="#023F6A"/>
<path d="M24.8999 30.15L25.0999 30.4L25.1499 30.7L25.4499 31.55L25.3999 31.75L25.0499 30.75L24.8999 30.35V30.15Z" fill="#023F6A"/>
<path d="M19.2001 5.80005L19.2501 6.00005L19.0001 6.25005L18.6001 6.30005L18.8001 6.10005L19.2001 5.80005Z" fill="#023F6A"/>
<path d="M25.6001 32.15L25.8501 32.4V32.75L25.9501 32.8L26.0001 33.1L26.1001 33.55L26.0001 33.45L25.6001 32.3V32.15Z" fill="#023F6A"/>
<path d="M28.1001 39.35L28.2501 39.45L28.4001 40.1L28.5001 40.35L28.4501 40.55L28.1001 39.55V39.35Z" fill="#023F6A"/>
<path d="M36.6 12.45L36.7 12.5L36.5 12.75L36.4 12.8H36L36.2 12.7L36.6 12.45Z" fill="#023F6A"/>
</g>
<defs>
<clipPath id="clip0_625_390">
<rect width="80" height="80" fill="white"/>
</clipPath>
</defs>
</svg>
