<svg width="335" height="93" viewBox="0 0 335 93" fill="none" xmlns="http://www.w3.org/2000/svg">
<g clip-path="url(#clip0_1_2)">
<path d="M266.358 0.882812H316.578L323.561 1.15137L326.783 1.95703L328.932 3.03125L331.349 4.91113L332.96 7.32812L334.034 9.74512L334.303 10.8193V14.8477L333.229 18.876L330.274 26.9326L316.578 63.4561L312.013 75.541L309.864 79.5693L307.447 82.5234L304.493 85.4775L300.196 88.4316L296.437 90.3115L292.14 91.6543L287.574 92.46H196.534L48.292 92.7285H0V53V3.03125L247.022 1.15137L266.358 0.882812Z" fill="#FE7800"/>
<path d="M122.413 33.6465H123.756L127.247 37.1377L129.664 40.0918L130.201 41.166H130.738L132.618 43.3145L133.692 44.6572L134.767 44.1201L137.721 40.8975L140.138 37.9434L143.092 34.4521L143.897 33.915L150.611 33.6465L150.88 33.915V65.0674H143.36L143.092 64.7988V46L141.749 47.3428L137.721 51.6396L134.767 55.1309L133.692 55.668L131.007 52.9824L128.59 50.0283L125.636 46.8057L124.83 46V65.0674H117.311L117.042 64.7988V34.1836L117.311 33.915L122.413 33.6465Z" fill="#FEFDFD"/>
<path d="M284.083 11.3564L285.426 11.625L286.769 12.9678L287.037 14.5791L286.769 16.1904L288.111 16.459L289.186 17.8018L292.945 18.6074L297.242 20.4873L299.659 22.3672L300.733 23.9785L300.465 26.127L294.557 43.583L291.334 52.7139L287.843 62.9189L285.694 69.3643L284.62 72.0498H284.083L283.814 68.0215V11.8936L284.083 11.3564Z" fill="#FEFCFB"/>
<path d="M283.009 11.625L284.083 11.8936V71.5127L283.277 70.707L281.666 67.2158L278.98 59.1592L276.295 51.3711L271.192 36.6006L267.433 25.5898V23.71L268.775 22.3672L270.655 20.7559L274.952 18.6074L279.786 16.9961L280.592 16.1904L281.129 13.2363L282.472 11.8936L283.009 11.625Z" fill="#025076"/>
<path d="M45.6064 33.1094H48.5605L53.9316 34.1836L57.6914 35.5264L57.96 36.6006V41.7031L56.3486 41.4346L51.7832 39.8232L49.3662 39.2861H46.6807L44.2637 40.3604L43.7266 40.8975V42.5088L45.3379 43.8516L54.2002 47.6113L57.1543 49.7598L58.7656 52.1768L59.3027 54.3252V58.085L58.4971 60.2334L56.0801 62.9189L53.3945 64.5303L50.1719 65.3359H44.2637L40.5039 64.5303L36.207 62.6504L35.9385 62.3818V55.9365L37.5498 56.4736L40.7725 58.3535L45.0693 59.4277H47.4863L49.6348 58.8906L50.9775 57.5479L50.709 55.668L48.292 54.0566L41.8467 51.3711L38.8926 49.7598L36.4756 47.3428L35.4014 44.9258L35.1328 43.583L35.4014 40.0918L36.7441 37.4062L38.624 35.5264L41.041 34.1836L45.6064 33.1094Z" fill="#FEFDFD"/>
<path d="M227.149 43.3145H230.909L235.206 44.6572L237.623 46.2686L239.503 48.1484L240.577 50.2969L241.114 52.9824V55.3994L240.577 58.3535L238.966 61.3076L237.086 63.1875L233.863 64.7988L231.178 65.3359H226.612L223.658 64.5303L220.973 62.9189L218.824 61.0391L217.481 58.085L217.213 57.0107V52.7139L218.019 49.4912L219.63 47.3428L221.51 45.4629L224.195 44.1201L227.149 43.3145Z" fill="#FEFDFD"/>
<path d="M162.428 43.3145H166.993L170.484 44.3887L172.633 46.2686L173.707 48.6855L173.976 61.3076L175.587 60.502L175.855 60.2334H177.198V62.3818L176.393 63.9932L174.781 64.7988L172.633 65.3359H169.142L167.799 64.2617L167.53 63.7246L165.919 63.9932L163.502 65.0674L162.159 65.3359H158.131L156.251 64.2617L154.64 62.3818L154.371 61.5762V58.3535L155.445 56.2051L157.862 54.5938L162.965 52.4453L166.725 51.1025L166.456 49.7598L165.382 48.417L164.845 48.1484H161.622L158.668 49.2227L155.714 51.1025L155.177 50.834L155.445 46L157.594 44.6572L160.816 43.583L162.428 43.3145Z" fill="#FEFDFD"/>
<path d="M68.9707 43.3145H72.999L76.4902 44.1201L78.6387 45.4629L79.7129 46.8057L79.9814 47.3428L80.25 58.6221L80.5186 61.0391L82.3984 60.502L82.9355 59.9648L84.0098 60.2334V62.6504L82.667 64.2617L80.7871 65.0674L79.4443 65.3359H75.9531L74.3418 64.5303L73.8047 63.7246L72.1934 63.9932L70.8506 64.7988L68.7021 65.3359H65.2109L63.0625 64.2617L61.4512 62.3818L60.9141 60.7705V58.085L61.9883 56.4736L63.8682 54.8623L67.8965 52.9824L73.2676 51.1025L72.999 49.4912L71.1191 48.1484H67.8965L64.6738 49.4912L62.5254 51.1025H61.9883V46L63.0625 45.1943L67.3594 43.583L68.9707 43.3145Z" fill="#FEFDFD"/>
<path d="M97.1689 43.3145H100.392L103.077 44.3887L105.494 46.8057L106.031 47.8799L106.3 50.5654V65.0674H100.123L99.8545 64.7988L99.5859 50.5654L98.2432 48.417L96.6318 47.8799L94.752 48.6855L92.335 50.834L92.0664 51.3711L91.7979 65.0674H85.3525L85.084 64.5303V43.8516H91.7979L92.0664 46.2686L93.6777 45.1943L95.0205 44.1201L97.1689 43.3145Z" fill="#FEFDFD"/>
<path d="M249.708 43.3145H253.468L257.765 44.3887L258.57 44.9258V49.4912L253.736 47.8799L251.051 47.6113L249.439 48.6855V49.4912L255.616 52.4453L257.765 54.0566L259.107 55.668L259.645 56.7422V60.502L258.302 62.9189L256.153 64.7988L254.005 65.3359H248.365L244.068 64.2617L243.8 63.9932L243.531 59.4277L245.143 59.6963L248.902 60.7705H251.588L253.468 59.6963L252.662 58.3535L246.754 55.668L244.605 54.0566L243.263 52.4453L242.994 51.6396V48.9541L243.8 46.8057L244.874 45.4629L247.022 44.1201L249.708 43.3145Z" fill="#FEFDFD"/>
<path d="M205.665 43.3145H209.156L212.916 44.1201L214.796 44.9258V49.7598L213.185 49.2227L211.305 48.6855H207.545L205.128 49.7598L203.785 51.3711L202.979 53.7881L203.248 56.2051L204.054 58.085L205.396 59.4277L207.813 60.502L211.573 60.2334L213.99 59.4277H215.064V63.1875L214.527 64.2617L210.768 65.3359H205.128L202.174 64.5303L199.488 62.9189L197.071 60.502L195.997 58.3535L195.729 56.7422V52.4453L196.803 49.2227L198.683 46.8057L201.1 44.9258L204.322 43.583L205.665 43.3145Z" fill="#FEFDFD"/>
<path d="M191.432 43.0459L192.774 43.3145L196.534 45.1943L196.803 46L195.191 50.834L194.386 51.1025L191.7 50.0283H189.552L187.672 51.6396L185.792 54.8623L185.523 56.2051V64.7988L184.986 65.0674H179.078L178.81 64.7988V43.8516H185.255L185.523 48.9541L187.403 46.2686L189.283 44.3887L191.432 43.0459Z" fill="#FEFDFD"/>
<path d="M228.492 47.3428L230.909 47.6113L232.789 49.2227L233.863 52.1768V56.7422L232.789 59.6963L230.909 61.3076L228.761 61.5762L226.344 60.7705L225.001 59.1592L224.195 56.7422V52.1768L225.001 50.0283L226.881 47.8799L228.492 47.3428Z" fill="#FE7800"/>
<path d="M72.999 54.8623L73.5361 55.1309L73.8047 58.8906L73.2676 60.2334L70.582 61.5762L68.9707 61.3076L67.6279 59.6963L67.8965 58.085L68.9707 56.7422L72.1934 55.1309L72.999 54.8623Z" fill="#FE7800"/>
<path d="M166.188 54.8623L166.993 55.1309V58.6221L166.456 60.2334L164.845 61.3076H162.428L161.085 59.9648V58.3535L162.428 56.7422L166.188 54.8623Z" fill="#FE7800"/>
</g>
<defs>
<clipPath id="clip0_1_2">
<rect width="335" height="93" fill="white"/>
</clipPath>
</defs>
</svg>
